<svg xmlns="http://www.w3.org/2000/svg" width="160" height="40" viewBox="0 0 160 40"><g><rect x="3.5" y="3.5" width="33.0" height="33.0" fill="#6474a3"/><rect x="3.5" y="3.5" width="33.0" height="33.0" fill="#6474a3" transform="rotate(45 20.0 20.0)"/><rect x="14.8" y="14.8" width="10.4" height="10.4" fill="#e1b45f" transform="rotate(45 20.0 20.0)"/></g><g><rect x="43.5" y="3.5" width="33.0" height="33.0" fill="#470c02"/><rect x="43.5" y="3.5" width="33.0" height="33.0" fill="#470c02" transform="rotate(45 60.0 20.0)"/><rect x="54.8" y="14.8" width="10.4" height="10.4" fill="#c14c28" transform="rotate(45 60.0 20.0)"/></g><g><rect x="83.5" y="3.5" width="33.0" height="33.0" fill="#c14c28"/><rect x="83.5" y="3.5" width="33.0" height="33.0" fill="#c14c28" transform="rotate(45 100.0 20.0)"/><rect x="94.8" y="14.8" width="10.4" height="10.4" fill="#470c02" transform="rotate(45 100.0 20.0)"/></g><g><rect x="123.5" y="3.5" width="33.0" height="33.0" fill="#470c02"/><rect x="123.5" y="3.5" width="33.0" height="33.0" fill="#470c02" transform="rotate(45 140.0 20.0)"/><rect x="134.8" y="14.8" width="10.4" height="10.4" fill="#c14c28" transform="rotate(45 140.0 20.0)"/></g></svg>